<svg id="Layer_1" data-name="Layer 1" xmlns="http://www.w3.org/2000/svg" xmlns:xlink="http://www.w3.org/1999/xlink" viewBox="0 0 340.16 170.08"><defs><style>.cls-1,.cls-10,.cls-22,.cls-23,.cls-24,.cls-3,.cls-5,.cls-7{fill:none;stroke-miterlimit:10;}.cls-1{stroke:#887ea7;}.cls-14,.cls-2{fill:#887ea7;}.cls-3{stroke:#c26558;}.cls-11,.cls-4{fill:#c26558;}.cls-10,.cls-5,.cls-7{stroke:#6badc9;}.cls-6,.cls-8{fill:#6badc9;}.cls-7{stroke-width:0.73px;}.cls-11,.cls-12,.cls-14,.cls-16,.cls-18,.cls-20,.cls-8{opacity:0.2;}.cls-9{fill:#fff;}.cls-10{stroke-width:0.83px;}.cls-12,.cls-13{fill:#d696a4;}.cls-15{fill:#6d6e71;}.cls-16{fill:url(#linear-gradient);}.cls-17{fill:#88b27e;}.cls-18{fill:#006838;}.cls-19{fill:#739669;}.cls-20,.cls-21{fill:#808285;}.cls-22{stroke:#88b27e;}.cls-23{stroke:#d696a4;}.cls-24{stroke:#849160;}.cls-25{fill:#849160;}</style><linearGradient id="linear-gradient" x1="176.19" y1="84.33" x2="221.54" y2="84.33" gradientUnits="userSpaceOnUse"><stop offset="0" stop-color="#39b54a"/><stop offset="1" stop-color="#009444"/></linearGradient></defs><title>Artboard 1</title><line class="cls-1" x1="161.18" y1="118.14" x2="175.87" y2="103.45"/><polygon class="cls-2" points="175.66 106.06 175.66 103.66 173.26 103.66 174.28 102.64 176.67 102.64 176.67 105.04 175.66 106.06"/><line class="cls-3" x1="159.43" y1="47.08" x2="176.63" y2="64.28"/><polygon class="cls-4" points="174.03 64.07 176.42 64.08 176.42 61.68 177.44 62.69 177.44 65.09 175.04 65.09 174.03 64.07"/><line class="cls-5" x1="46.11" y1="50.59" x2="58.26" y2="62.75"/><polygon class="cls-6" points="55.66 62.53 58.06 62.54 58.05 60.14 59.07 61.16 59.07 63.55 56.67 63.55 55.66 62.53"/><line class="cls-5" x1="34.89" y1="57.2" x2="57.27" y2="127.41"/><polygon class="cls-6" points="55.05 126.02 57.18 127.13 58.28 125 58.72 126.37 57.62 128.5 55.49 127.4 55.05 126.02"/><line class="cls-3" x1="103.82" y1="63.84" x2="119.53" y2="48.13"/><polygon class="cls-4" points="119.32 50.73 119.32 48.34 116.92 48.34 117.94 47.32 120.34 47.32 120.34 49.72 119.32 50.73"/><line class="cls-3" x1="103.82" y1="104.57" x2="119.24" y2="120"/><polygon class="cls-4" points="116.64 119.79 119.04 119.79 119.03 117.39 120.05 118.41 120.05 120.81 117.66 120.81 116.64 119.79"/><line class="cls-3" x1="146.38" y1="47.28" x2="146.38" y2="35.46"/><line class="cls-3" x1="135.33" y1="47.45" x2="146.21" y2="35.63"/><line class="cls-3" x1="146.21" y1="35.63" x2="146.21" y2="23.32"/><line class="cls-3" x1="146.21" y1="23.32" x2="157.44" y2="35.12"/><line class="cls-7" x1="135.5" y1="23.15" x2="135.5" y2="35.89"/><line class="cls-7" x1="141.29" y1="10.85" x2="146.26" y2="23.21"/><line class="cls-7" x1="135.5" y1="23.15" x2="141.29" y2="10.85"/><line class="cls-7" x1="124.62" y1="35.46" x2="135.5" y2="23.15"/><path class="cls-8" d="M26.16,52.12A22.68,22.68,0,1,1,48.83,29.44,22.7,22.7,0,0,1,26.16,52.12Z"/><circle class="cls-6" cx="26.16" cy="29.44" r="20.89"/><circle class="cls-9" cx="26.16" cy="29.44" r="15.01"/><circle class="cls-6" cx="124.62" cy="35.46" r="4.6"/><circle class="cls-6" cx="135.5" cy="35.46" r="4.6"/><circle class="cls-9" cx="145.85" cy="35.46" r="3.3"/><circle class="cls-4" cx="146.38" cy="35.46" r="4.6"/><circle class="cls-4" cx="157.25" cy="35.46" r="4.6"/><circle class="cls-9" cx="141.29" cy="10.85" r="3.3"/><circle class="cls-6" cx="141.29" cy="10.85" r="4.6"/><circle class="cls-9" cx="136.68" cy="23.15" r="3.3"/><circle class="cls-6" cx="135.5" cy="23.15" r="4.6"/><circle class="cls-6" cx="146.38" cy="23.15" r="4.6"/><circle class="cls-4" cx="135.5" cy="47.28" r="4.6"/><circle class="cls-4" cx="146.38" cy="47.28" r="4.6"/><line class="cls-10" x1="80.84" y1="30.09" x2="80.84" y2="44.59"/><line class="cls-10" x1="87.44" y1="16.08" x2="93.09" y2="30.15"/><line class="cls-10" x1="80.84" y1="30.09" x2="87.44" y2="16.08"/><line class="cls-10" x1="68.46" y1="44.1" x2="80.84" y2="30.09"/><circle class="cls-6" cx="68.46" cy="44.1" r="5.23"/><circle class="cls-6" cx="80.84" cy="44.1" r="5.23"/><circle class="cls-9" cx="87.44" cy="16.08" r="3.76"/><circle class="cls-6" cx="87.44" cy="16.08" r="5.23"/><circle class="cls-9" cx="82.18" cy="30.09" r="3.76"/><circle class="cls-6" cx="80.84" cy="30.09" r="5.23"/><circle class="cls-6" cx="93.22" cy="30.09" r="5.23"/><path class="cls-6" d="M18.79,26.89h.63v4.47h-.63Zm.39,2h2.49v.6H19.18Zm2.15-2H22v4.47h-.63Z"/><path class="cls-6" d="M22.45,26.89h3.16v.59H22.45Zm1.27.36h.63v4.11h-.63Z"/><path class="cls-6" d="M29.32,26.89h.59v4.47H29.3V28l0,.2-1.1,2.53h-.44l-1.1-2.47,0-.26v3.35H26.1V26.89h.59L28,29.84Z"/><path class="cls-6" d="M31,26.89h.63v4.47H31Zm.31,3.88h2.56v.59H31.33Z"/><path class="cls-11" d="M83.73,107A22.68,22.68,0,1,1,106.4,84.33,22.71,22.71,0,0,1,83.73,107Z"/><circle class="cls-4" cx="83.73" cy="84.33" r="20.89"/><circle class="cls-9" cx="83.73" cy="84.33" r="15.01"/><path class="cls-4" d="M80.77,87.51a1.3,1.3,0,0,1-.49-.41l.52-.37a.56.56,0,0,0,.25.23.76.76,0,0,0,.38.09.71.71,0,0,0,.56-.23.9.9,0,0,0,.21-.64V83.13h.62v3.05a1.78,1.78,0,0,1-.16.8,1.16,1.16,0,0,1-.48.5,1.68,1.68,0,0,1-1.41,0Z"/><path class="cls-4" d="M85,87.65l-.29-.06a2.45,2.45,0,0,1-.54-.18,3.46,3.46,0,0,1-.47-.31l.4-.48a1.76,1.76,0,0,0,.56.33,2,2,0,0,0,.67.11,1.34,1.34,0,0,0,.75-.18.58.58,0,0,0,.27-.51h0a.53.53,0,0,0-.12-.37.81.81,0,0,0-.32-.21,4.4,4.4,0,0,0-.49-.12h-.09a4.08,4.08,0,0,1-.73-.18,1,1,0,0,1-.48-.35,1.13,1.13,0,0,1-.2-.73h0a1.3,1.3,0,0,1,.18-.7,1.17,1.17,0,0,1,.55-.45,2,2,0,0,1,.86-.16,1.89,1.89,0,0,1,.47.06,2.06,2.06,0,0,1,.46.15,2.82,2.82,0,0,1,.44.26l-.35.5a2.18,2.18,0,0,0-.51-.28,1.54,1.54,0,0,0-.51-.1,1.23,1.23,0,0,0-.72.19.59.59,0,0,0-.25.52h0a.48.48,0,0,0,.13.36.79.79,0,0,0,.33.2l.54.13h.11a3.74,3.74,0,0,1,.68.2,1,1,0,0,1,.46.37,1.16,1.16,0,0,1,.18.69h0a1.14,1.14,0,0,1-.75,1.14,2.4,2.4,0,0,1-.89.15Z"/><path class="cls-12" d="M83.73,161.9a22.68,22.68,0,1,1,22.67-22.68A22.71,22.71,0,0,1,83.73,161.9Z"/><circle class="cls-13" cx="83.73" cy="139.22" r="20.89"/><circle class="cls-9" cx="83.73" cy="139.22" r="15.01"/><path class="cls-13" d="M79.45,141.18l-.35-.2a1.37,1.37,0,0,1-.55-.59,1.86,1.86,0,0,1-.19-.87v-1.23a1.87,1.87,0,0,1,.19-.88,1.42,1.42,0,0,1,.55-.59,1.7,1.7,0,0,1,1.52,0,1.36,1.36,0,0,1,.54.47,1.77,1.77,0,0,1,.3.7h-.65a1,1,0,0,0-.19-.38.9.9,0,0,0-.33-.25.85.85,0,0,0-.38-.09.86.86,0,0,0-.48.13,1,1,0,0,0-.32.37,1.4,1.4,0,0,0-.11.56v1.23a1.38,1.38,0,0,0,.11.55,1,1,0,0,0,.32.37.86.86,0,0,0,.48.13,1,1,0,0,0,.39-.08,1,1,0,0,0,.32-.25,1,1,0,0,0,.19-.39h.65a1.77,1.77,0,0,1-.3.7,1.61,1.61,0,0,1-.54.47,1.54,1.54,0,0,1-.71.16Z"/><path class="cls-13" d="M83.37,141.18l-.29-.06a2.45,2.45,0,0,1-.54-.18,2.39,2.39,0,0,1-.47-.31l.39-.48a1.64,1.64,0,0,0,.57.33,1.76,1.76,0,0,0,.66.11,1.36,1.36,0,0,0,.76-.18.58.58,0,0,0,.27-.51h0a.54.54,0,0,0-.13-.37.67.67,0,0,0-.31-.2,3,3,0,0,0-.5-.13H83.7A3.87,3.87,0,0,1,83,139a1,1,0,0,1-.49-.35,1.18,1.18,0,0,1-.2-.73h0a1.32,1.32,0,0,1,.19-.71,1.1,1.1,0,0,1,.54-.45,2.24,2.24,0,0,1,.86-.15,1.83,1.83,0,0,1,.47,0,1.9,1.9,0,0,1,.46.15,3.47,3.47,0,0,1,.45.26l-.36.5a2.15,2.15,0,0,0-.51-.28,1.52,1.52,0,0,0-.51-.09,1.22,1.22,0,0,0-.71.18.59.59,0,0,0-.25.52h0a.45.45,0,0,0,.13.36.7.7,0,0,0,.32.2,4.13,4.13,0,0,0,.55.13H84a3.74,3.74,0,0,1,.68.2,1.07,1.07,0,0,1,.45.37,1.11,1.11,0,0,1,.19.69h0a1.25,1.25,0,0,1-.2.7,1.19,1.19,0,0,1-.56.44,2.33,2.33,0,0,1-.89.15Z"/><path class="cls-13" d="M87.25,141.18l-.29-.06a2.45,2.45,0,0,1-.54-.18,2.39,2.39,0,0,1-.47-.31l.39-.48a1.64,1.64,0,0,0,.57.33,1.78,1.78,0,0,0,.67.11,1.34,1.34,0,0,0,.75-.18.58.58,0,0,0,.27-.51h0a.53.53,0,0,0-.12-.37.76.76,0,0,0-.32-.2,3,3,0,0,0-.5-.13h-.08a4.08,4.08,0,0,1-.73-.18,1,1,0,0,1-.48-.35,1.11,1.11,0,0,1-.2-.73h0a1.31,1.31,0,0,1,.18-.71,1.17,1.17,0,0,1,.55-.45,2.15,2.15,0,0,1,.85-.15,2,2,0,0,1,.48,0,2.24,2.24,0,0,1,.46.15,3.37,3.37,0,0,1,.44.26l-.36.5a2.15,2.15,0,0,0-.51-.28,1.52,1.52,0,0,0-.51-.09,1.22,1.22,0,0,0-.71.18.59.59,0,0,0-.25.52h0a.45.45,0,0,0,.13.36.76.76,0,0,0,.32.2,4.56,4.56,0,0,0,.55.13h.11a3.74,3.74,0,0,1,.68.2,1.16,1.16,0,0,1,.46.37,1.18,1.18,0,0,1,.18.69h0a1.33,1.33,0,0,1-.19.7,1.22,1.22,0,0,1-.57.44,2.31,2.31,0,0,1-.88.15Z"/><path class="cls-14" d="M141.29,161.89A22.68,22.68,0,1,1,164,139.22,22.7,22.7,0,0,1,141.29,161.89Z"/><circle class="cls-2" cx="141.29" cy="139.22" r="20.89"/><circle class="cls-9" cx="141.29" cy="139.22" r="15.01"/><path class="cls-2" d="M132.53,141.18l-.36-.2a1.41,1.41,0,0,1-.54-.59,1.86,1.86,0,0,1-.2-.87v-1.23a1.87,1.87,0,0,1,.2-.88,1.47,1.47,0,0,1,.54-.59,1.58,1.58,0,0,1,.82-.2,1.54,1.54,0,0,1,.71.16,1.51,1.51,0,0,1,.54.47,1.76,1.76,0,0,1,.29.7h-.64a.93.93,0,0,0-.2-.38.87.87,0,0,0-.32-.25.85.85,0,0,0-.38-.09.86.86,0,0,0-.48.13.89.89,0,0,0-.32.37,1.25,1.25,0,0,0-.11.56v1.23a1.23,1.23,0,0,0,.11.55.89.89,0,0,0,.32.37.86.86,0,0,0,.48.13,1,1,0,0,0,.38-.08.87.87,0,0,0,.32-.25.91.91,0,0,0,.2-.39h.64a1.76,1.76,0,0,1-.29.7,1.61,1.61,0,0,1-.54.47,1.54,1.54,0,0,1-.71.16Z"/><path class="cls-2" d="M136.45,141.18l-.29-.06a2.45,2.45,0,0,1-.54-.18,2.13,2.13,0,0,1-.47-.31l.39-.48a1.69,1.69,0,0,0,.56.33,1.85,1.85,0,0,0,.67.11,1.36,1.36,0,0,0,.76-.18.59.59,0,0,0,.26-.51h0a.53.53,0,0,0-.12-.37.67.67,0,0,0-.31-.2,3.24,3.24,0,0,0-.5-.13h-.09A4.08,4.08,0,0,1,136,139a1,1,0,0,1-.48-.35,1.18,1.18,0,0,1-.2-.73h0a1.23,1.23,0,0,1,.19-.71,1.1,1.1,0,0,1,.54-.45,2.24,2.24,0,0,1,.86-.15,1.83,1.83,0,0,1,.47,0,1.9,1.9,0,0,1,.46.15,3.47,3.47,0,0,1,.45.26l-.36.5a2.15,2.15,0,0,0-.51-.28,1.52,1.52,0,0,0-.51-.09,1.2,1.2,0,0,0-.71.18.6.6,0,0,0-.26.52h0a.49.49,0,0,0,.13.36.79.79,0,0,0,.33.2,4.32,4.32,0,0,0,.54.13h.12a4,4,0,0,1,.68.2,1.07,1.07,0,0,1,.45.37,1.18,1.18,0,0,1,.19.69h0a1.17,1.17,0,0,1-.76,1.14,2.37,2.37,0,0,1-.89.15Z"/><path class="cls-2" d="M140.33,141.18l-.29-.06a2.45,2.45,0,0,1-.54-.18,2.39,2.39,0,0,1-.47-.31l.39-.48a1.69,1.69,0,0,0,.56.33,1.85,1.85,0,0,0,.67.11,1.36,1.36,0,0,0,.76-.18.57.57,0,0,0,.26-.51h0a.53.53,0,0,0-.12-.37.67.67,0,0,0-.31-.2,3,3,0,0,0-.5-.13h-.08a4.22,4.22,0,0,1-.74-.18,1.07,1.07,0,0,1-.48-.35,1.18,1.18,0,0,1-.2-.73h0a1.32,1.32,0,0,1,.19-.71,1.1,1.1,0,0,1,.54-.45,2.24,2.24,0,0,1,.86-.15,1.83,1.83,0,0,1,.47,0,1.9,1.9,0,0,1,.46.15,3.47,3.47,0,0,1,.45.26l-.36.5a2.15,2.15,0,0,0-.51-.28,1.52,1.52,0,0,0-.51-.09,1.22,1.22,0,0,0-.71.18.6.6,0,0,0-.26.52h0a.46.46,0,0,0,.14.36.7.7,0,0,0,.32.2,4.13,4.13,0,0,0,.55.13H141a3.74,3.74,0,0,1,.68.2,1.07,1.07,0,0,1,.45.37,1.11,1.11,0,0,1,.19.69h0a1.25,1.25,0,0,1-.2.7,1.19,1.19,0,0,1-.56.44,2.33,2.33,0,0,1-.89.15Z"/><path class="cls-2" d="M143.85,141a1.42,1.42,0,0,1-.56-.58,1.86,1.86,0,0,1-.19-.87v-1.26a1.86,1.86,0,0,1,.19-.87,1.42,1.42,0,0,1,.56-.58,1.56,1.56,0,0,1,.82-.2,1.62,1.62,0,0,1,.83.2,1.46,1.46,0,0,1,.55.58,1.86,1.86,0,0,1,.19.87v1.26a1.86,1.86,0,0,1-.19.87,1.46,1.46,0,0,1-.55.58,1.62,1.62,0,0,1-.83.2A1.56,1.56,0,0,1,143.85,141Zm1.31-.54a.78.78,0,0,0,.32-.35,1.15,1.15,0,0,0,.12-.53v-1.32a1.15,1.15,0,0,0-.12-.53.78.78,0,0,0-.32-.35,1,1,0,0,0-1,0,.78.78,0,0,0-.32.35,1.15,1.15,0,0,0-.12.53v1.32a1.15,1.15,0,0,0,.12.53.78.78,0,0,0,.32.35,1,1,0,0,0,1,0Z"/><path class="cls-2" d="M150.48,136.66h.58v4.48h-.61v-3.35l0,.19-1.1,2.54h-.44l-1.1-2.48,0-.25v3.35h-.61v-4.48h.59l1.31,3Z"/><path class="cls-15" d="M169.52,27.18h.7v5h-.7Zm.47,4.31h1.12a1.22,1.22,0,0,0,.86-.28,1.06,1.06,0,0,0,.3-.81V28.94a1.06,1.06,0,0,0-.3-.81,1.22,1.22,0,0,0-.86-.28H170v-.67h1.1a2.34,2.34,0,0,1,1,.21,1.45,1.45,0,0,1,.64.61,2,2,0,0,1,.22,1v1.4a2,2,0,0,1-.22,1,1.48,1.48,0,0,1-.65.61,2.41,2.41,0,0,1-1,.2H170Z"/><path class="cls-15" d="M174.84,32a1.57,1.57,0,0,1-.61-.64,2,2,0,0,1-.22-1V29a2,2,0,0,1,.22-1,1.57,1.57,0,0,1,.61-.64,1.94,1.94,0,0,1,1.83,0,1.59,1.59,0,0,1,.62.64,2.13,2.13,0,0,1,.21,1v1.4a2.13,2.13,0,0,1-.21,1,1.59,1.59,0,0,1-.62.64,1.94,1.94,0,0,1-1.83,0Zm1.46-.6a1,1,0,0,0,.36-.39,1.25,1.25,0,0,0,.13-.59V28.94a1.25,1.25,0,0,0-.13-.59,1,1,0,0,0-.36-.39,1.13,1.13,0,0,0-1.09,0,1,1,0,0,0-.36.39,1.38,1.38,0,0,0-.13.59V30.4a1.38,1.38,0,0,0,.13.59,1,1,0,0,0,.36.39,1.13,1.13,0,0,0,1.09,0Z"/><path class="cls-15" d="M182.2,27.18h.65v5h-.68V28.43l0,.22L181,31.46h-.49l-1.22-2.74,0-.29v3.72h-.68v-5h.65l1.46,3.29Z"/><path class="cls-16" d="M198.86,107a22.68,22.68,0,1,1,22.68-22.68A22.7,22.7,0,0,1,198.86,107Z"/><circle class="cls-17" cx="198.86" cy="84.33" r="20.89"/><circle class="cls-9" cx="198.86" cy="84.33" r="15.01"/><path class="cls-17" d="M187.43,79.56h.62V84h-.62Zm.27,2h1.51a.54.54,0,0,0,.31-.09.61.61,0,0,0,.21-.24.8.8,0,0,0,.08-.36.83.83,0,0,0-.08-.36.61.61,0,0,0-.21-.24.53.53,0,0,0-.31-.08H187.7v-.59h1.48a1.48,1.48,0,0,1,.68.15,1.21,1.21,0,0,1,.45.45,1.44,1.44,0,0,1,.15.67,1.33,1.33,0,0,1-.16.67,1.08,1.08,0,0,1-.45.45,1.41,1.41,0,0,1-.67.15H187.7Zm1.21.45.61-.14L190.65,84h-.73Z"/><path class="cls-17" d="M191.48,79.56h.62V84h-.62Zm.3,0h2.54v.59h-2.54Zm0,1.93H194v.58h-2.2Zm0,1.89h2.54V84h-2.54Z"/><path class="cls-17" d="M195.2,79.56h.56L197.91,83l-.07.08V79.56h.61V84h-.56l-2.15-3.36.07-.08V84h-.61Z"/><path class="cls-17" d="M199.55,79.56h.62V84h-.62Zm.41,3.82h1a1.06,1.06,0,0,0,.76-.25.94.94,0,0,0,.27-.72V81.12a.94.94,0,0,0-.27-.72,1.06,1.06,0,0,0-.76-.25h-1v-.59h1a2.08,2.08,0,0,1,.91.18,1.35,1.35,0,0,1,.57.54,1.68,1.68,0,0,1,.2.86v1.25a1.62,1.62,0,0,1-.2.85,1.24,1.24,0,0,1-.57.54,2,2,0,0,1-.91.19h-1Z"/><path class="cls-17" d="M203.62,79.56h.62V84h-.62Zm.3,0h2.54v.59h-2.54Zm0,1.93h2.2v.58h-2.2Zm0,1.89h2.54V84h-2.54Z"/><path class="cls-17" d="M207.33,79.56H208V84h-.62Zm.27,2h1.51a.54.54,0,0,0,.31-.09.61.61,0,0,0,.21-.24.8.8,0,0,0,.08-.36.83.83,0,0,0-.08-.36.61.61,0,0,0-.21-.24.53.53,0,0,0-.31-.08H207.6v-.59h1.48a1.48,1.48,0,0,1,.68.15,1.21,1.21,0,0,1,.45.45,1.44,1.44,0,0,1,.16.67,1.33,1.33,0,0,1-.17.67,1.08,1.08,0,0,1-.45.45,1.41,1.41,0,0,1-.67.15H207.6Zm1.21.45.61-.14L210.55,84h-.73Z"/><path class="cls-17" d="M191.57,85.86h3.11v.59h-3.11Zm1.25.36h.62v4h-.62Z"/><path class="cls-17" d="M195.17,85.86h.62v4.41h-.62Zm.27,2h1.5a.62.62,0,0,0,.31-.08.52.52,0,0,0,.21-.25.8.8,0,0,0,.08-.36.78.78,0,0,0-.08-.35.47.47,0,0,0-.21-.25.59.59,0,0,0-.31-.08h-1.5v-.59h1.48a1.33,1.33,0,0,1,.67.16,1.08,1.08,0,0,1,.45.45,1.46,1.46,0,0,1,0,1.33,1.08,1.08,0,0,1-.45.45,1.35,1.35,0,0,1-.67.16h-1.48Zm1.2.45.61-.14,1.13,2.14h-.73Z"/><path class="cls-17" d="M199.22,85.86h.61v4.41h-.61Zm.3,0h2.53v.59h-2.53Zm0,1.93h2.19v.59h-2.19Zm0,1.9h2.53v.58h-2.53Z"/><path class="cls-17" d="M202.93,85.86h.62v4.41h-.62Zm.3,0h2.53v.59h-2.53Zm0,1.93h2.2v.59h-2.2Zm0,1.9h2.53v.58h-2.53Z"/><path class="cls-18" d="M256.43,107a22.68,22.68,0,1,1,22.68-22.68A22.71,22.71,0,0,1,256.43,107Z"/><circle class="cls-19" cx="256.43" cy="84.33" r="20.89"/><circle class="cls-9" cx="256.43" cy="84.33" r="15.01"/><path class="cls-19" d="M246.13,81.77h.63v4.48h-.63Zm.32,3.88H249v.6h-2.56Z"/><path class="cls-19" d="M251,81.77h.53l1.65,4.48h-.67l-1.24-3.61L250,86.25h-.68Zm-.89,2.9h2.35v.6h-2.35Z"/><path class="cls-19" d="M254.84,84.43v1.82h-.63V84.43l-1.37-2.66h.7l1,2,1-2h.7Z"/><path class="cls-19" d="M257.26,86.09a1.36,1.36,0,0,1-.56-.58,1.84,1.84,0,0,1-.19-.86V83.38a1.86,1.86,0,0,1,.19-.87,1.42,1.42,0,0,1,.56-.58,1.69,1.69,0,0,1,.82-.2,1.73,1.73,0,0,1,.83.2,1.46,1.46,0,0,1,.55.58,1.86,1.86,0,0,1,.2.87v1.27a1.85,1.85,0,0,1-.2.86,1.4,1.4,0,0,1-.55.58,1.63,1.63,0,0,1-.83.21A1.59,1.59,0,0,1,257.26,86.09Zm1.31-.54a.86.86,0,0,0,.33-.35,1.25,1.25,0,0,0,.11-.53V83.36a1.25,1.25,0,0,0-.11-.53.83.83,0,0,0-.33-.36,1,1,0,0,0-.49-.12,1,1,0,0,0-.49.12.75.75,0,0,0-.32.36,1.12,1.12,0,0,0-.12.53v1.31a1.12,1.12,0,0,0,.12.53.78.78,0,0,0,.32.35.9.9,0,0,0,.49.13A.88.88,0,0,0,258.57,85.55Z"/><path class="cls-19" d="M261.33,86.1a1.35,1.35,0,0,1-.54-.57,2.06,2.06,0,0,1-.18-.9V81.77h.63v2.88a1.1,1.1,0,0,0,.24.76,1,1,0,0,0,1.4,0,1.1,1.1,0,0,0,.25-.76V81.77h.62v2.86a2.06,2.06,0,0,1-.18.9,1.24,1.24,0,0,1-.54.57,1.72,1.72,0,0,1-.85.2A1.75,1.75,0,0,1,261.33,86.1Z"/><path class="cls-19" d="M264.19,81.77h3.15v.6h-3.15Zm1.26.37h.63v4.11h-.63Z"/><path class="cls-20" d="M314,107a22.68,22.68,0,1,1,22.68-22.68A22.71,22.71,0,0,1,314,107Z"/><circle class="cls-21" cx="314" cy="84.33" r="20.89"/><circle class="cls-9" cx="314" cy="84.33" r="15.01"/><path class="cls-21" d="M306.1,81.77h.63v4.48h-.63Zm.32,2.15h1.43a.69.69,0,0,0,.36-.1.64.64,0,0,0,.24-.27,1,1,0,0,0,.08-.4,1,1,0,0,0-.08-.41.64.64,0,0,0-.24-.27.61.61,0,0,0-.36-.1h-1.43v-.6h1.41a1.49,1.49,0,0,1,.71.17,1.23,1.23,0,0,1,.47.49,1.47,1.47,0,0,1,.17.72,1.53,1.53,0,0,1-.17.72,1.18,1.18,0,0,1-.47.47,1.38,1.38,0,0,1-.71.17h-1.41Z"/><path class="cls-21" d="M311,81.77h.54l1.65,4.48h-.68l-1.24-3.61L310,86.25h-.68Zm-.89,2.9h2.36v.6h-2.36Z"/><path class="cls-21" d="M314.46,86.25h-.63V81.77h.63Z"/><path class="cls-21" d="M315.56,81.77h.57l2.19,3.46-.07.08V81.77h.62v4.48h-.58l-2.18-3.41.07-.08v3.49h-.62Z"/><path class="cls-21" d="M319.36,81.77h3.16v.6h-3.16Zm1.27.37h.63v4.11h-.63Z"/><line class="cls-5" x1="52.85" y1="29.44" x2="64.01" y2="29.44"/><polygon class="cls-6" points="62.02 31.14 63.72 29.44 62.02 27.75 63.46 27.75 65.16 29.44 63.46 31.14 62.02 31.14"/><line class="cls-22" x1="224.09" y1="83.93" x2="230.07" y2="83.93"/><polygon class="cls-17" points="228.07 85.63 229.77 83.93 228.07 82.23 229.51 82.23 231.21 83.93 229.51 85.63 228.07 85.63"/><line class="cls-23" x1="108.95" y1="139.22" x2="114.93" y2="139.22"/><polygon class="cls-13" points="112.94 140.91 114.63 139.22 112.94 137.52 114.38 137.52 116.07 139.22 114.38 140.91 112.94 140.91"/><line class="cls-24" x1="281.66" y1="83.93" x2="287.63" y2="83.93"/><polygon class="cls-25" points="285.64 85.63 287.34 83.93 285.64 82.23 287.08 82.23 288.78 83.93 287.08 85.63 285.64 85.63"/><line class="cls-5" x1="105.22" y1="29.44" x2="116.38" y2="29.44"/><polygon class="cls-6" points="114.39 31.14 116.09 29.44 114.39 27.75 115.83 27.75 117.53 29.44 115.83 31.14 114.39 31.14"/></svg>