<svg id="Layer_1" data-name="Layer 1" xmlns="http://www.w3.org/2000/svg" viewBox="0 0 340.16 184"><defs><style>.cls-1{fill:#8dc63f;}.cls-2,.cls-6{fill:none;stroke-miterlimit:10;stroke-width:1.01px;}.cls-2{stroke:#8dc63f;}.cls-3{fill:#c26558;}.cls-4{fill:#fff;}.cls-5{fill:#9c4e46;}.cls-6{stroke:#c26558;}</style></defs><title>Artboard 1 copy</title><rect class="cls-1" x="171.31" y="46.07" width="52.7" height="8.19"/><line class="cls-2" x1="171.31" y1="44.22" x2="171.31" y2="56.11"/><line class="cls-2" x1="224.01" y1="44.22" x2="224.01" y2="56.11"/><rect class="cls-1" x="171.31" y="147.04" width="52.7" height="8.19"/><line class="cls-2" x1="171.31" y1="145.18" x2="171.31" y2="157.08"/><line class="cls-2" x1="224.01" y1="145.18" x2="224.01" y2="157.08"/><rect class="cls-1" x="116.13" y="40.02" width="52.7" height="8.19"/><line class="cls-2" x1="116.13" y1="38.17" x2="116.13" y2="50.06"/><line class="cls-2" x1="168.83" y1="38.17" x2="168.83" y2="50.06"/><path class="cls-3" d="M14.26,6.72h.6V11h-.6Zm.41,3.69h1a1,1,0,0,0,.74-.24.9.9,0,0,0,.26-.69V8.22a.88.88,0,0,0-.26-.69,1,1,0,0,0-.74-.24h-1V6.72h1a2,2,0,0,1,.88.18,1.23,1.23,0,0,1,.56.52,1.64,1.64,0,0,1,.19.83v1.2a1.67,1.67,0,0,1-.19.83,1.23,1.23,0,0,1-.56.52,2,2,0,0,1-.89.18h-.95Z"/><path class="cls-3" d="M18.87,10.83a1.34,1.34,0,0,1-.53-.55,1.72,1.72,0,0,1-.19-.83V8.25a1.7,1.7,0,0,1,.19-.83,1.28,1.28,0,0,1,.53-.55,1.57,1.57,0,0,1,.79-.2,1.61,1.61,0,0,1,.8.2,1.34,1.34,0,0,1,.53.55,1.81,1.81,0,0,1,.19.83v1.2a1.85,1.85,0,0,1-.19.83,1.4,1.4,0,0,1-.53.55,1.6,1.6,0,0,1-.8.19A1.57,1.57,0,0,1,18.87,10.83Zm1.26-.52a.78.78,0,0,0,.32-.33,1.19,1.19,0,0,0,.11-.51V8.22a1.15,1.15,0,0,0-.11-.5.81.81,0,0,0-.32-.34.89.89,0,0,0-.47-.12.94.94,0,0,0-.47.12.85.85,0,0,0-.31.34,1.15,1.15,0,0,0-.11.5V9.47a1.19,1.19,0,0,0,.11.51.83.83,0,0,0,.31.33.94.94,0,0,0,.47.12A.89.89,0,0,0,20.13,10.31Z"/><path class="cls-3" d="M23.92,6.72h.42l.88,3.34L26,6.72h.63L25.56,11h-.62l-.79-3-.83,3H22.7L21.65,6.72h.63L23,10.06Z"/><path class="cls-3" d="M27.23,6.72h.6V11h-.6Zm.3,3.69H30V11H27.53Z"/><path class="cls-3" d="M31.33,10.83a1.47,1.47,0,0,1-.53-.55,1.84,1.84,0,0,1-.18-.83V8.25a1.81,1.81,0,0,1,.18-.83,1.4,1.4,0,0,1,.53-.55,1.61,1.61,0,0,1,.8-.2,1.57,1.57,0,0,1,.79.2,1.28,1.28,0,0,1,.53.55,1.7,1.7,0,0,1,.19.83v1.2a1.72,1.72,0,0,1-.19.83,1.34,1.34,0,0,1-.53.55,1.57,1.57,0,0,1-.79.19A1.6,1.6,0,0,1,31.33,10.83Zm1.27-.52a.76.76,0,0,0,.31-.33A1.06,1.06,0,0,0,33,9.47V8.22a1,1,0,0,0-.11-.5.79.79,0,0,0-.31-.34.91.91,0,0,0-.47-.12.89.89,0,0,0-.47.12.73.73,0,0,0-.31.34,1,1,0,0,0-.12.5V9.47a1.07,1.07,0,0,0,.12.51.71.71,0,0,0,.31.33.89.89,0,0,0,.47.12A.91.91,0,0,0,32.6,10.31Z"/><path class="cls-3" d="M35.7,6.72h.52L37.8,11h-.65L36,7.54,34.77,11h-.65Zm-.85,2.76h2.26V10H34.85Z"/><path class="cls-3" d="M38.46,6.72h.6V11h-.6Zm.4,3.69h1a1.06,1.06,0,0,0,.74-.24.94.94,0,0,0,.26-.69V8.22a.92.92,0,0,0-.26-.69,1.06,1.06,0,0,0-.74-.24h-1V6.72h1a2,2,0,0,1,.89.18,1.28,1.28,0,0,1,.56.52,1.75,1.75,0,0,1,.19.83v1.2a1.78,1.78,0,0,1-.19.83,1.25,1.25,0,0,1-.57.52,2,2,0,0,1-.88.18h-1Z"/><path class="cls-3" d="M46.34,9.45v.49H43.2V9.45Zm.17-1.7v.5H43.38v-.5Zm-2.18-1h.48L44.08,11h-.49Zm1.25,0h.49L45.33,11h-.48Z"/><path class="cls-3" d="M48.2,11h-.6V7.37L47,7.74V7.12l.61-.4h.6Z"/><path class="cls-4" d="M34.41,21v.58H30.75V21Zm.2-2v.58H31v-.58Zm-2.55-1.2h.57l-.86,5h-.56Zm1.47,0h.56l-.85,5h-.57Z"/><path class="cls-4" d="M36.59,22.82h-.71V18.61l-.71.43v-.72l.71-.47h.71Z"/><rect class="cls-3" x="4.88" y="15.3" width="52.7" height="8.19"/><path class="cls-3" d="M69.29,12.72h.6V17h-.6Zm.41,3.69h1a1,1,0,0,0,.74-.24.9.9,0,0,0,.26-.69V14.22a.88.88,0,0,0-.26-.69,1,1,0,0,0-.74-.24h-1v-.57h1a2,2,0,0,1,.88.18,1.23,1.23,0,0,1,.56.52,1.64,1.64,0,0,1,.19.83v1.2a1.67,1.67,0,0,1-.19.83,1.23,1.23,0,0,1-.56.52,2,2,0,0,1-.89.18h-1Z"/><path class="cls-3" d="M73.9,16.83a1.34,1.34,0,0,1-.53-.55,1.72,1.72,0,0,1-.19-.83v-1.2a1.7,1.7,0,0,1,.19-.83,1.28,1.28,0,0,1,.53-.55,1.57,1.57,0,0,1,.79-.2,1.61,1.61,0,0,1,.8.2,1.34,1.34,0,0,1,.53.55,1.81,1.81,0,0,1,.19.83v1.2a1.85,1.85,0,0,1-.19.83,1.4,1.4,0,0,1-.53.55,1.6,1.6,0,0,1-.8.19A1.57,1.57,0,0,1,73.9,16.83Zm1.26-.52a.78.78,0,0,0,.32-.33,1.19,1.19,0,0,0,.11-.51V14.22a1.15,1.15,0,0,0-.11-.5.81.81,0,0,0-.32-.34.89.89,0,0,0-.47-.12.94.94,0,0,0-.47.12.79.79,0,0,0-.31.34,1.15,1.15,0,0,0-.11.5v1.25a1.19,1.19,0,0,0,.11.51.76.76,0,0,0,.31.33.94.94,0,0,0,.47.12A.89.89,0,0,0,75.16,16.31Z"/><path class="cls-3" d="M79,12.72h.42l.88,3.34L81,12.72h.63l-1,4.26H80l-.79-3-.83,3h-.62l-1-4.26h.63l.76,3.34Z"/><path class="cls-3" d="M82.26,12.72h.6V17h-.6Zm.3,3.69H85V17H82.56Z"/><path class="cls-3" d="M86.36,16.83a1.47,1.47,0,0,1-.53-.55,1.84,1.84,0,0,1-.18-.83v-1.2a1.81,1.81,0,0,1,.18-.83,1.4,1.4,0,0,1,.53-.55,1.61,1.61,0,0,1,.8-.2,1.57,1.57,0,0,1,.79.2,1.28,1.28,0,0,1,.53.55,1.7,1.7,0,0,1,.19.83v1.2a1.72,1.72,0,0,1-.19.83,1.34,1.34,0,0,1-.53.55,1.57,1.57,0,0,1-.79.19A1.6,1.6,0,0,1,86.36,16.83Zm1.27-.52a.76.76,0,0,0,.31-.33,1.06,1.06,0,0,0,.11-.51V14.22a1,1,0,0,0-.11-.5.79.79,0,0,0-.31-.34.91.91,0,0,0-.47-.12.89.89,0,0,0-.47.12.73.73,0,0,0-.31.34,1,1,0,0,0-.12.5v1.25a1.07,1.07,0,0,0,.12.51.71.71,0,0,0,.31.33.89.89,0,0,0,.47.12A.91.91,0,0,0,87.63,16.31Z"/><path class="cls-3" d="M90.73,12.72h.52L92.83,17h-.65L91,13.54,89.8,17h-.65Zm-.85,2.76h2.26V16H89.88Z"/><path class="cls-3" d="M93.48,12.72h.61V17h-.61Zm.41,3.69h1a1.06,1.06,0,0,0,.74-.24.94.94,0,0,0,.26-.69V14.22a.92.92,0,0,0-.26-.69,1.06,1.06,0,0,0-.74-.24h-1v-.57h1a2,2,0,0,1,.89.18,1.21,1.21,0,0,1,.55.52,1.64,1.64,0,0,1,.2.83v1.2a1.67,1.67,0,0,1-.2.83,1.18,1.18,0,0,1-.56.52,2,2,0,0,1-.88.18h-1Z"/><path class="cls-3" d="M101.37,15.45v.49H98.23v-.49Zm.17-1.7v.5H98.41v-.5Zm-2.18-1h.48L99.11,17h-.49Zm1.25,0h.49L100.36,17h-.48Z"/><path class="cls-3" d="M102.13,16.46l1.5-2a1.13,1.13,0,0,0,.2-.35,1,1,0,0,0,.08-.34h0a.54.54,0,0,0-.15-.4.65.65,0,0,0-.43-.14.57.57,0,0,0-.43.16.7.7,0,0,0-.2.43h-.62a1.47,1.47,0,0,1,.21-.62,1.1,1.1,0,0,1,.43-.4,1.27,1.27,0,0,1,.6-.14,1.62,1.62,0,0,1,.66.13,1,1,0,0,1,.41.38,1.17,1.17,0,0,1,.14.61h0a1.35,1.35,0,0,1-.09.47,2,2,0,0,1-.26.47l-1.25,1.68h1.63V17h-2.43Z"/><path class="cls-1" d="M71.46,47.39h.6v4.26h-.6Zm.29,0h2.47V48H71.75Zm0,1.86H73.9v.56H71.75Zm0,1.83h2.47v.57H71.75Z"/><path class="cls-1" d="M76.11,49.21l1.08-1.82h.68l-1.43,2.3-1.15,2h-.68Zm0,.56L76,49.63l-1.4-2.24h.68l1,1.73.1.16,1.47,2.37h-.68Z"/><path class="cls-1" d="M78.52,47.39h.61v4.26h-.61Zm.3,0h2.47V48H78.82Zm0,1.86H81v.56H78.82Zm0,1.83h2.47v.57H78.82Z"/><path class="cls-1" d="M83.11,51.69l-.34-.2a1.34,1.34,0,0,1-.53-.55,1.86,1.86,0,0,1-.18-.84V48.93a1.84,1.84,0,0,1,.18-.83,1.36,1.36,0,0,1,.53-.56,1.57,1.57,0,0,1,.79-.2,1.48,1.48,0,0,1,1.2.6,1.67,1.67,0,0,1,.28.67h-.62a1,1,0,0,0-.19-.36,1,1,0,0,0-.31-.24.8.8,0,0,0-.36-.09.92.92,0,0,0-.47.13.79.79,0,0,0-.3.35,1.14,1.14,0,0,0-.11.53V50.1a1.12,1.12,0,0,0,.11.53.79.79,0,0,0,.3.35.83.83,0,0,0,.47.13.87.87,0,0,0,.67-.32.87.87,0,0,0,.19-.37H85a1.51,1.51,0,0,1-.29.67,1.48,1.48,0,0,1-1.19.6Z"/><path class="cls-1" d="M86.53,51.5A1.16,1.16,0,0,1,86,51a1.88,1.88,0,0,1-.18-.86V47.39h.6v2.74a1,1,0,0,0,.24.72,1,1,0,0,0,1.34,0,1,1,0,0,0,.24-.72V47.39h.6V50.1a1.89,1.89,0,0,1-.17.86,1.18,1.18,0,0,1-.52.54,1.86,1.86,0,0,1-1.64,0Z"/><path class="cls-1" d="M89.28,47.39h3V48h-3Zm1.22.34h.6v3.92h-.6Z"/><path class="cls-1" d="M92.79,47.39h.6v4.26h-.6Zm.29,0h2.48V48H93.08Zm0,1.86h2.15v.56H93.08Zm0,1.83h2.48v.57H93.08Z"/><path class="cls-1" d="M100.32,50.12v.49H97.18v-.49Zm.17-1.7v.5H97.36v-.5Zm-2.18-1h.48l-.73,4.26h-.49Zm1.25,0h.49l-.74,4.26h-.48Z"/><path class="cls-1" d="M102.18,51.65h-.6V48l-.61.37v-.62l.61-.4h.6Z"/><path class="cls-3" d="M124.91,18.56h.61v4.26h-.61Zm.41,3.69h1A1,1,0,0,0,127,22a.87.87,0,0,0,.26-.69V20.06a.87.87,0,0,0-.26-.69,1,1,0,0,0-.74-.24h-1v-.57h1a2,2,0,0,1,.88.18,1.18,1.18,0,0,1,.56.52,1.63,1.63,0,0,1,.19.82v1.21a1.67,1.67,0,0,1-.19.83,1.29,1.29,0,0,1-.56.52,2,2,0,0,1-.89.18h-1Z"/><path class="cls-3" d="M129.52,22.67a1.4,1.4,0,0,1-.53-.55,1.72,1.72,0,0,1-.19-.83V20.08a1.68,1.68,0,0,1,.19-.82,1.34,1.34,0,0,1,.53-.55,1.57,1.57,0,0,1,.79-.2,1.61,1.61,0,0,1,.8.2,1.34,1.34,0,0,1,.53.55,1.68,1.68,0,0,1,.19.82v1.21a1.72,1.72,0,0,1-.19.83,1.4,1.4,0,0,1-.53.55,1.6,1.6,0,0,1-.8.19A1.57,1.57,0,0,1,129.52,22.67Zm1.26-.52a.85.85,0,0,0,.32-.33,1.19,1.19,0,0,0,.11-.51V20.06a1.12,1.12,0,0,0-.11-.5.81.81,0,0,0-.32-.34.89.89,0,0,0-.47-.12.88.88,0,0,0-.46.12.81.81,0,0,0-.32.34,1.12,1.12,0,0,0-.11.5v1.25a1.19,1.19,0,0,0,.11.51.85.85,0,0,0,.32.33.88.88,0,0,0,.46.12A.89.89,0,0,0,130.78,22.15Z"/><path class="cls-3" d="M134.57,18.56H135l.88,3.34.76-3.34h.63l-1,4.26h-.62l-.79-3-.83,3h-.62l-1-4.26h.63l.76,3.34Z"/><path class="cls-3" d="M137.88,18.56h.6v4.26h-.6Zm.3,3.69h2.47v.57h-2.47Z"/><path class="cls-3" d="M142,22.67a1.43,1.43,0,0,1-.54-.55,1.84,1.84,0,0,1-.18-.83V20.08a1.8,1.8,0,0,1,.18-.82,1.36,1.36,0,0,1,.54-.55,1.54,1.54,0,0,1,.79-.2,1.57,1.57,0,0,1,.79.2,1.28,1.28,0,0,1,.53.55,1.68,1.68,0,0,1,.19.82v1.21a1.72,1.72,0,0,1-.19.83,1.34,1.34,0,0,1-.53.55,1.57,1.57,0,0,1-.79.19A1.54,1.54,0,0,1,142,22.67Zm1.26-.52a.82.82,0,0,0,.31-.33,1.06,1.06,0,0,0,.11-.51V20.06a1,1,0,0,0-.11-.5.79.79,0,0,0-.31-.34,1,1,0,0,0-.94,0,.73.73,0,0,0-.31.34,1,1,0,0,0-.11.5v1.25a1.06,1.06,0,0,0,.11.51.76.76,0,0,0,.31.33,1,1,0,0,0,.94,0Z"/><path class="cls-3" d="M146.35,18.56h.52l1.59,4.26h-.66l-1.19-3.44-1.19,3.44h-.65Zm-.85,2.75h2.26v.57H145.5Z"/><path class="cls-3" d="M149.11,18.56h.6v4.26h-.6Zm.4,3.69h1a1,1,0,0,0,.74-.25.9.9,0,0,0,.26-.69V20.06a.9.9,0,0,0-.26-.69,1.06,1.06,0,0,0-.74-.24h-1v-.57h1a2,2,0,0,1,.89.18,1.23,1.23,0,0,1,.56.52,1.74,1.74,0,0,1,.19.82v1.21a1.78,1.78,0,0,1-.19.83,1.31,1.31,0,0,1-.57.52,2,2,0,0,1-.88.18h-1Z"/><path class="cls-3" d="M157,21.29v.49h-3.14v-.49Zm.18-1.7v.5H154v-.5Zm-2.19-1h.48l-.73,4.26h-.48Zm1.26,0h.48L156,22.82h-.48Z"/><path class="cls-3" d="M158.57,22.86l-.28-.13a1.08,1.08,0,0,1-.44-.38,1.34,1.34,0,0,1-.21-.59h.61a.59.59,0,0,0,.12.29.58.58,0,0,0,.23.18.81.81,0,0,0,.33.06.66.66,0,0,0,.46-.16.61.61,0,0,0,.17-.45v-.13a.69.69,0,0,0-.16-.49.54.54,0,0,0-.44-.17h-.31v-.57H159a.5.5,0,0,0,.39-.15.61.61,0,0,0,.14-.42v-.14a.53.53,0,0,0-.15-.39.58.58,0,0,0-.41-.13.78.78,0,0,0-.28.05.49.49,0,0,0-.2.18.83.83,0,0,0-.13.3h-.61a1.53,1.53,0,0,1,.22-.6,1.09,1.09,0,0,1,.42-.38,1.34,1.34,0,0,1,.58-.13,1.22,1.22,0,0,1,.86.29,1.1,1.1,0,0,1,.3.82v.07a1,1,0,0,1-.17.56,1,1,0,0,1-.5.34.87.87,0,0,1,.55.35,1.1,1.1,0,0,1,.19.68v.07a1.25,1.25,0,0,1-.14.63,1,1,0,0,1-.42.4,1.54,1.54,0,0,1-.67.14Z"/><path class="cls-5" d="M33.74,77.1h.6v4.3h-.6Zm.41,3.73h1a1,1,0,0,0,.73-.25.89.89,0,0,0,.26-.7V78.62a.89.89,0,0,0-.26-.7,1,1,0,0,0-.73-.25h-1V77.1h.94a1.94,1.94,0,0,1,.88.18,1.18,1.18,0,0,1,.55.53,1.64,1.64,0,0,1,.19.83v1.22a1.71,1.71,0,0,1-.19.84,1.21,1.21,0,0,1-.55.52,2,2,0,0,1-.88.18h-.94Z"/><path class="cls-5" d="M38.3,81.25a1.34,1.34,0,0,1-.52-.56,1.7,1.7,0,0,1-.19-.83V78.64a1.7,1.7,0,0,1,.19-.83,1.34,1.34,0,0,1,.52-.56,1.66,1.66,0,0,1,1.58,0,1.34,1.34,0,0,1,.52.56,1.81,1.81,0,0,1,.19.83v1.22a1.81,1.81,0,0,1-.19.83,1.34,1.34,0,0,1-.52.56,1.66,1.66,0,0,1-1.58,0Zm1.25-.52a.81.81,0,0,0,.32-.34,1.19,1.19,0,0,0,.1-.51V78.62a1.19,1.19,0,0,0-.1-.51.81.81,0,0,0-.32-.34.94.94,0,0,0-.92,0,.73.73,0,0,0-.31.34,1.06,1.06,0,0,0-.11.51v1.26a1.06,1.06,0,0,0,.11.51.73.73,0,0,0,.31.34.94.94,0,0,0,.92,0Z"/><path class="cls-5" d="M43.3,77.1h.41l.88,3.37.75-3.37H46l-1,4.3h-.61l-.78-3-.82,3H42.1l-1-4.3h.62l.75,3.37Z"/><path class="cls-5" d="M46.58,77.1h.59v4.3h-.59Zm.29,3.73h2.44v.57H46.87Z"/><path class="cls-5" d="M50.64,81.25a1.36,1.36,0,0,1-.53-.56,1.81,1.81,0,0,1-.18-.83V78.64a1.81,1.81,0,0,1,.18-.83,1.36,1.36,0,0,1,.53-.56,1.64,1.64,0,0,1,1.57,0,1.36,1.36,0,0,1,.53.56,1.81,1.81,0,0,1,.18.83v1.22a1.81,1.81,0,0,1-.18.83,1.36,1.36,0,0,1-.53.56,1.64,1.64,0,0,1-1.57,0Zm1.25-.52a.79.79,0,0,0,.31-.34,1.19,1.19,0,0,0,.11-.51V78.62a1.19,1.19,0,0,0-.11-.51.79.79,0,0,0-.31-.34.91.91,0,0,0-.47-.12.88.88,0,0,0-.46.12.79.79,0,0,0-.31.34,1.19,1.19,0,0,0-.11.51v1.26a1.19,1.19,0,0,0,.11.51.79.79,0,0,0,.31.34.88.88,0,0,0,.46.12A.91.91,0,0,0,51.89,80.73Z"/><path class="cls-5" d="M55,77.1h.51L57,81.4H56.4l-1.19-3.47L54,81.4h-.64Zm-.85,2.78h2.24v.58H54.11Z"/><path class="cls-5" d="M57.68,77.1h.6v4.3h-.6Zm.41,3.73h1a1,1,0,0,0,.73-.25.89.89,0,0,0,.26-.7V78.62a.89.89,0,0,0-.26-.7,1,1,0,0,0-.73-.25h-1V77.1H59a1.93,1.93,0,0,1,.87.18,1.18,1.18,0,0,1,.55.53,1.64,1.64,0,0,1,.2.83v1.22a1.71,1.71,0,0,1-.2.84,1.21,1.21,0,0,1-.55.52,2,2,0,0,1-.88.18h-.94Z"/><path class="cls-5" d="M62.65,77.1h.6v4.3h-.6ZM63,79h2.36v.57H63Zm2-1.9h.6v4.3h-.6Z"/><path class="cls-5" d="M67.88,77.1h.51L70,81.4h-.64l-1.19-3.47L67,81.4h-.64ZM67,79.88h2.24v.58H67Z"/><path class="cls-5" d="M70.6,77.1h.6v4.3h-.6Zm.3,3.73h2.44v.57H70.9Z"/><path class="cls-5" d="M74,77.1h.6v4.3H74Zm.3,0h2.38v.57H74.34Zm0,1.92H76.4v.57H74.34Z"/><path class="cls-5" d="M79.05,81.25a1.36,1.36,0,0,1-.53-.56,1.81,1.81,0,0,1-.18-.83V78.64a1.81,1.81,0,0,1,.18-.83,1.36,1.36,0,0,1,.53-.56,1.53,1.53,0,0,1,.78-.2,1.57,1.57,0,0,1,.79.2,1.34,1.34,0,0,1,.52.56,1.7,1.7,0,0,1,.19.83v1.22a1.7,1.7,0,0,1-.19.83,1.34,1.34,0,0,1-.52.56,1.57,1.57,0,0,1-.79.2A1.53,1.53,0,0,1,79.05,81.25Zm1.25-.52a.79.79,0,0,0,.31-.34,1.19,1.19,0,0,0,.11-.51V78.62a1.19,1.19,0,0,0-.11-.51.79.79,0,0,0-.31-.34.91.91,0,0,0-.47-.12.88.88,0,0,0-.46.12.73.73,0,0,0-.31.34,1.19,1.19,0,0,0-.11.51v1.26a1.19,1.19,0,0,0,.11.51.73.73,0,0,0,.31.34.88.88,0,0,0,.46.12A.91.91,0,0,0,80.3,80.73Z"/><path class="cls-5" d="M82.3,77.1h.59v4.3H82.3Zm.29,0H85v.57H82.59Zm0,1.92h2.07v.57H82.59Z"/><path class="cls-5" d="M89.52,79.86v.5H86.41v-.5Zm.17-1.72v.5h-3.1v-.5Zm-2.16-1H88l-.72,4.3H86.8Zm1.24,0h.48l-.73,4.3H88Z"/><path class="cls-5" d="M91.36,81.4h-.6V77.75l-.6.38v-.62l.6-.41h.6Z"/><path class="cls-5" d="M60.68,89.13h.6v4.3h-.6Zm.4,3.73h1a1,1,0,0,0,.73-.25.93.93,0,0,0,.26-.7V90.65a.93.93,0,0,0-.26-.7,1,1,0,0,0-.73-.25h-1v-.57h1a1.93,1.93,0,0,1,.87.18,1.23,1.23,0,0,1,.56.52,1.83,1.83,0,0,1,.19.84v1.22a1.78,1.78,0,0,1-.19.83,1.2,1.2,0,0,1-.56.53,1.93,1.93,0,0,1-.87.18h-1Z"/><path class="cls-5" d="M65.24,93.28a1.36,1.36,0,0,1-.53-.56,1.81,1.81,0,0,1-.18-.83V90.67a1.81,1.81,0,0,1,.18-.83,1.36,1.36,0,0,1,.53-.56,1.64,1.64,0,0,1,1.57,0,1.36,1.36,0,0,1,.53.56,1.81,1.81,0,0,1,.18.83v1.22a1.81,1.81,0,0,1-.18.83,1.36,1.36,0,0,1-.53.56,1.64,1.64,0,0,1-1.57,0Zm1.25-.52a.79.79,0,0,0,.31-.34,1.19,1.19,0,0,0,.11-.51V90.65a1.19,1.19,0,0,0-.11-.51.79.79,0,0,0-.31-.34.91.91,0,0,0-.47-.12.88.88,0,0,0-.46.12.79.79,0,0,0-.31.34,1.19,1.19,0,0,0-.11.51v1.26a1.19,1.19,0,0,0,.11.51.79.79,0,0,0,.31.34.88.88,0,0,0,.46.12A.91.91,0,0,0,66.49,92.76Z"/><path class="cls-5" d="M70.24,89.13h.41l.87,3.37.75-3.37h.62l-1,4.3h-.6l-.79-3-.82,3H69l-1-4.3h.62l.75,3.37Z"/><path class="cls-5" d="M73.51,89.13h.6v4.3h-.6Zm.3,3.73h2.44v.57H73.81Z"/><path class="cls-5" d="M77.57,93.28a1.34,1.34,0,0,1-.52-.56,1.7,1.7,0,0,1-.19-.83V90.67a1.7,1.7,0,0,1,.19-.83,1.34,1.34,0,0,1,.52-.56,1.57,1.57,0,0,1,.79-.2,1.51,1.51,0,0,1,.78.2,1.36,1.36,0,0,1,.53.56,1.81,1.81,0,0,1,.19.83v1.22a1.81,1.81,0,0,1-.19.83,1.36,1.36,0,0,1-.53.56,1.51,1.51,0,0,1-.78.2A1.57,1.57,0,0,1,77.57,93.28Zm1.25-.52a.73.73,0,0,0,.31-.34,1.06,1.06,0,0,0,.11-.51V90.65a1.06,1.06,0,0,0-.11-.51.73.73,0,0,0-.31-.34.88.88,0,0,0-.46-.12.91.91,0,0,0-.47.12.85.85,0,0,0-.31.34,1.19,1.19,0,0,0-.11.51v1.26a1.19,1.19,0,0,0,.11.51.85.85,0,0,0,.31.34.91.91,0,0,0,.47.12A.88.88,0,0,0,78.82,92.76Z"/><path class="cls-5" d="M81.89,89.13h.51L84,93.43h-.64L82.15,90,81,93.43h-.65Zm-.84,2.78h2.24v.58H81.05Z"/><path class="cls-5" d="M84.62,89.13h.6v4.3h-.6Zm.4,3.73h1a1,1,0,0,0,.73-.25.93.93,0,0,0,.26-.7V90.65a.93.93,0,0,0-.26-.7A1,1,0,0,0,86,89.7H85v-.57h1a2,2,0,0,1,.88.18,1.26,1.26,0,0,1,.55.52,1.71,1.71,0,0,1,.19.84v1.22a1.67,1.67,0,0,1-.19.83,1.2,1.2,0,0,1-.56.53,1.93,1.93,0,0,1-.87.18H85Z"/><path class="cls-5" d="M89.58,89.13h.6v4.3h-.6ZM90,91h2.37v.58H90Zm2-1.89h.6v4.3H92Z"/><path class="cls-5" d="M94.81,89.13h.51l1.57,4.3h-.64L95.07,90l-1.18,3.47h-.65ZM94,91.91h2.24v.58H94Z"/><path class="cls-5" d="M97.54,89.13h.6v4.3h-.6Zm.3,3.73h2.44v.57H97.84Z"/><path class="cls-5" d="M101,89.13h.6v4.3H101Zm.29,0h2.39v.57h-2.39Zm0,1.92h2.07v.57h-2.07Z"/><path class="cls-5" d="M106,93.28a1.34,1.34,0,0,1-.52-.56,1.7,1.7,0,0,1-.19-.83V90.67a1.7,1.7,0,0,1,.19-.83,1.34,1.34,0,0,1,.52-.56,1.57,1.57,0,0,1,.79-.2,1.53,1.53,0,0,1,.78.2,1.36,1.36,0,0,1,.53.56,1.81,1.81,0,0,1,.18.83v1.22a1.81,1.81,0,0,1-.18.83,1.36,1.36,0,0,1-.53.56,1.53,1.53,0,0,1-.78.2A1.57,1.57,0,0,1,106,93.28Zm1.25-.52a.73.73,0,0,0,.31-.34,1.06,1.06,0,0,0,.11-.51V90.65a1.06,1.06,0,0,0-.11-.51.73.73,0,0,0-.31-.34.88.88,0,0,0-.46-.12.91.91,0,0,0-.47.12.85.85,0,0,0-.31.34,1.19,1.19,0,0,0-.11.51v1.26a1.19,1.19,0,0,0,.11.51.85.85,0,0,0,.31.34.91.91,0,0,0,.47.12A.88.88,0,0,0,107.23,92.76Z"/><path class="cls-5" d="M109.23,89.13h.6v4.3h-.6Zm.29,0h2.39v.57h-2.39Zm0,1.92h2.07v.57h-2.07Z"/><path class="cls-5" d="M116.45,91.89v.5h-3.1v-.5Zm.17-1.72v.5h-3.1v-.5Zm-2.16-1h.48l-.73,4.3h-.48Zm1.24,0h.48l-.73,4.3H115Z"/><path class="cls-5" d="M117.2,92.91l1.49-2a2.16,2.16,0,0,0,.2-.36.9.9,0,0,0,.07-.34h0a.52.52,0,0,0-.15-.4.56.56,0,0,0-.42-.14.61.61,0,0,0-.43.15.74.74,0,0,0-.19.44h-.62a1.68,1.68,0,0,1,.22-.63,1,1,0,0,1,.42-.4,1.25,1.25,0,0,1,.59-.14,1.6,1.6,0,0,1,.65.13.91.91,0,0,1,.41.39,1.17,1.17,0,0,1,.14.61h0a1.35,1.35,0,0,1-.09.47,1.87,1.87,0,0,1-.26.48L118,92.86h1.62v.57H117.2Z"/><path class="cls-5" d="M89.18,101.09h.6v4.3h-.6Zm.41,3.73h1a1,1,0,0,0,.73-.25.89.89,0,0,0,.26-.7v-1.26a.91.91,0,0,0-.26-.7,1,1,0,0,0-.73-.25h-1v-.57h1a1.93,1.93,0,0,1,.87.18,1.23,1.23,0,0,1,.55.53,1.67,1.67,0,0,1,.2.83v1.22a1.68,1.68,0,0,1-.2.84,1.21,1.21,0,0,1-.55.52,2,2,0,0,1-.88.18h-.94Z"/><path class="cls-5" d="M93.75,105.24a1.3,1.3,0,0,1-.53-.56,1.81,1.81,0,0,1-.19-.83v-1.22a1.85,1.85,0,0,1,.19-.83,1.3,1.3,0,0,1,.53-.56,1.51,1.51,0,0,1,.78-.2,1.57,1.57,0,0,1,.79.2,1.34,1.34,0,0,1,.52.56,1.72,1.72,0,0,1,.19.83v1.22a1.7,1.7,0,0,1-.19.83,1.34,1.34,0,0,1-.52.56,1.57,1.57,0,0,1-.79.2A1.51,1.51,0,0,1,93.75,105.24Zm1.25-.52a.85.85,0,0,0,.31-.34,1.13,1.13,0,0,0,.11-.51v-1.26a1.19,1.19,0,0,0-.11-.51.85.85,0,0,0-.31-.34.91.91,0,0,0-.47-.12.88.88,0,0,0-.46.12.73.73,0,0,0-.31.34,1.06,1.06,0,0,0-.11.51v1.26a1,1,0,0,0,.11.51.73.73,0,0,0,.31.34.88.88,0,0,0,.46.12A.91.91,0,0,0,95,104.72Z"/><path class="cls-5" d="M98.74,101.09h.41l.88,3.37.75-3.37h.62l-1,4.3h-.61l-.78-3-.82,3h-.61l-1-4.3h.62l.75,3.37Z"/><path class="cls-5" d="M102,101.09h.59v4.3H102Zm.3,3.73h2.43v.57h-2.43Z"/><path class="cls-5" d="M106.08,105.24a1.36,1.36,0,0,1-.53-.56,1.81,1.81,0,0,1-.18-.83v-1.22a1.84,1.84,0,0,1,.18-.83,1.36,1.36,0,0,1,.53-.56,1.64,1.64,0,0,1,1.57,0,1.36,1.36,0,0,1,.53.56,1.84,1.84,0,0,1,.18.83v1.22a1.81,1.81,0,0,1-.18.83,1.36,1.36,0,0,1-.53.56,1.64,1.64,0,0,1-1.57,0Zm1.25-.52a.79.79,0,0,0,.31-.34,1.13,1.13,0,0,0,.11-.51v-1.26a1.19,1.19,0,0,0-.11-.51.79.79,0,0,0-.31-.34.88.88,0,0,0-.46-.12.89.89,0,0,0-.47.12.79.79,0,0,0-.31.34,1.19,1.19,0,0,0-.11.51v1.26a1.13,1.13,0,0,0,.11.51.79.79,0,0,0,.31.34.89.89,0,0,0,.47.12A.88.88,0,0,0,107.33,104.72Z"/><path class="cls-5" d="M110.4,101.09h.51l1.57,4.3h-.64l-1.18-3.47-1.18,3.47h-.65Zm-.85,2.78h2.25v.58h-2.25Z"/><path class="cls-5" d="M113.13,101.09h.59v4.3h-.59Zm.4,3.73h1a1,1,0,0,0,.74-.25.92.92,0,0,0,.25-.7v-1.26a.94.94,0,0,0-.25-.7,1.07,1.07,0,0,0-.74-.25h-1v-.57h1a1.93,1.93,0,0,1,.87.18,1.3,1.3,0,0,1,.56.53,1.78,1.78,0,0,1,.19.83v1.22a1.8,1.8,0,0,1-.19.84,1.28,1.28,0,0,1-.56.52,1.94,1.94,0,0,1-.88.18h-.94Z"/><path class="cls-5" d="M118.09,101.09h.6v4.3h-.6Zm.37,1.9h2.37v.57h-2.37Zm2.05-1.9h.6v4.3h-.6Z"/><path class="cls-5" d="M123.32,101.09h.51l1.57,4.3h-.64l-1.18-3.47-1.18,3.47h-.65Zm-.85,2.78h2.25v.58h-2.25Z"/><path class="cls-5" d="M126.05,101.09h.59v4.3h-.59Zm.29,3.73h2.44v.57h-2.44Z"/><path class="cls-5" d="M129.49,101.09h.59v4.3h-.59Zm.29,0h2.39v.57h-2.39Zm0,1.92h2.06v.57h-2.06Z"/><path class="cls-5" d="M134.49,105.24a1.36,1.36,0,0,1-.53-.56,1.81,1.81,0,0,1-.18-.83v-1.22a1.84,1.84,0,0,1,.18-.83,1.36,1.36,0,0,1,.53-.56,1.64,1.64,0,0,1,1.57,0,1.36,1.36,0,0,1,.53.56,1.84,1.84,0,0,1,.18.83v1.22a1.81,1.81,0,0,1-.18.83,1.36,1.36,0,0,1-.53.56,1.64,1.64,0,0,1-1.57,0Zm1.25-.52a.79.79,0,0,0,.31-.34,1.13,1.13,0,0,0,.11-.51v-1.26a1.19,1.19,0,0,0-.11-.51.79.79,0,0,0-.31-.34.91.91,0,0,0-.47-.12.88.88,0,0,0-.46.12.79.79,0,0,0-.31.34,1.19,1.19,0,0,0-.11.51v1.26a1.13,1.13,0,0,0,.11.51.79.79,0,0,0,.31.34.88.88,0,0,0,.46.12A.91.91,0,0,0,135.74,104.72Z"/><path class="cls-5" d="M137.74,101.09h.6v4.3h-.6Zm.29,0h2.39v.57H138Zm0,1.92h2.07v.57H138Z"/><path class="cls-5" d="M145,103.85v.5h-3.11v-.5Zm.17-1.72v.5H142v-.5Zm-2.16-1h.48l-.73,4.3h-.48Zm1.24,0h.48l-.73,4.3h-.48Z"/><path class="cls-5" d="M146.52,105.44l-.27-.13a1,1,0,0,1-.44-.39,1.34,1.34,0,0,1-.21-.6h.61a.67.67,0,0,0,.11.3.58.58,0,0,0,.23.18.81.81,0,0,0,.33.06.67.67,0,0,0,.46-.16.61.61,0,0,0,.16-.45v-.13a.7.7,0,0,0-.16-.5.54.54,0,0,0-.43-.18h-.31v-.57h.31a.49.49,0,0,0,.38-.15.63.63,0,0,0,.14-.43v-.13a.57.57,0,0,0-.14-.4.61.61,0,0,0-.42-.14.6.6,0,0,0-.27.06.49.49,0,0,0-.2.18.68.68,0,0,0-.12.3h-.61a1.53,1.53,0,0,1,.22-.6,1.17,1.17,0,0,1,.41-.39,1.33,1.33,0,0,1,.57-.13,1.18,1.18,0,0,1,.86.3,1.09,1.09,0,0,1,.3.82v.07a.92.92,0,0,1-.18.57,1,1,0,0,1-.48.35.86.86,0,0,1,.54.34,1.22,1.22,0,0,1,.19.69v.07a1.29,1.29,0,0,1-.15.64.9.9,0,0,1-.41.41,1.53,1.53,0,0,1-.66.14Z"/><path class="cls-5" d="M119,114.71v.5h-3.1v-.5Zm.17-1.72v.5H116V113ZM117,112h.48l-.73,4.3h-.48Zm1.24,0h.48l-.73,4.3h-.48Z"/><path class="cls-5" d="M120.79,116.25h-.59V112.6l-.61.38v-.62l.61-.41h.59Z"/><path class="cls-5" d="M147.18,126.84v.51h-3.1v-.51Zm.17-1.71v.5h-3.1v-.5Zm-2.16-1h.48l-.73,4.3h-.48Zm1.24,0h.48l-.73,4.3h-.47Z"/><path class="cls-5" d="M147.93,127.87l1.49-2a2.16,2.16,0,0,0,.2-.36,1,1,0,0,0,.07-.35h0a.52.52,0,0,0-.15-.4.68.68,0,0,0-.84,0,.7.7,0,0,0-.2.44h-.62a1.62,1.62,0,0,1,.22-.63,1,1,0,0,1,.42-.4,1.25,1.25,0,0,1,.59-.14,1.42,1.42,0,0,1,.65.13.91.91,0,0,1,.41.39,1.13,1.13,0,0,1,.14.6h0a1.35,1.35,0,0,1-.09.47,1.87,1.87,0,0,1-.26.48l-1.24,1.7h1.62v.57h-2.41Z"/><path class="cls-5" d="M174.67,139.06v.5h-3.1v-.5Zm.18-1.71v.5h-3.11v-.5Zm-2.17-1h.48l-.73,4.31H172Zm1.25,0h.47l-.72,4.31h-.48Z"/><path class="cls-5" d="M176.23,140.65l-.27-.13a1.16,1.16,0,0,1-.44-.38,1.42,1.42,0,0,1-.21-.61h.61a.67.67,0,0,0,.12.31.5.5,0,0,0,.23.17.79.79,0,0,0,.32.06.57.57,0,0,0,.63-.61v-.13a.77.77,0,0,0-.16-.5.54.54,0,0,0-.44-.17h-.3v-.58h.3a.5.5,0,0,0,.39-.15.62.62,0,0,0,.14-.43v-.13A.5.5,0,0,0,177,137a.54.54,0,0,0-.41-.14.76.76,0,0,0-.27,0,.6.6,0,0,0-.21.18,1,1,0,0,0-.12.3h-.61a1.6,1.6,0,0,1,.23-.6.94.94,0,0,1,.41-.38,1.36,1.36,0,0,1,1.42.16,1.11,1.11,0,0,1,.3.83v.07a.91.91,0,0,1-.17.56.94.94,0,0,1-.49.35.87.87,0,0,1,.54.35,1.1,1.1,0,0,1,.19.68v.07a1.33,1.33,0,0,1-.14.65,1,1,0,0,1-.42.4,1.46,1.46,0,0,1-.66.14Z"/><path class="cls-1" d="M126.56,53.39h.6v4.26h-.6Zm.29,0h2.47V54h-2.47Zm0,1.86H129v.56h-2.15Zm0,1.83h2.47v.57h-2.47Z"/><path class="cls-1" d="M131.21,55.21l1.08-1.82H133l-1.43,2.3-1.15,2h-.68Zm0,.56-.09-.14-1.4-2.24h.68l1,1.73.1.16L133,57.65h-.68Z"/><path class="cls-1" d="M133.62,53.39h.61v4.26h-.61Zm.3,0h2.47V54h-2.47Zm0,1.86h2.14v.56h-2.14Zm0,1.83h2.47v.57h-2.47Z"/><path class="cls-1" d="M138.21,57.69l-.34-.2a1.34,1.34,0,0,1-.53-.55,1.86,1.86,0,0,1-.18-.84V54.93a1.84,1.84,0,0,1,.18-.83,1.36,1.36,0,0,1,.53-.56,1.57,1.57,0,0,1,.79-.2,1.48,1.48,0,0,1,1.2.6,1.67,1.67,0,0,1,.28.67h-.62a1,1,0,0,0-.19-.36A1,1,0,0,0,139,54a.8.8,0,0,0-.36-.09.92.92,0,0,0-.47.13.79.79,0,0,0-.3.35,1.14,1.14,0,0,0-.11.53V56.1a1.12,1.12,0,0,0,.11.53.79.79,0,0,0,.3.35.83.83,0,0,0,.47.13.87.87,0,0,0,.67-.32.87.87,0,0,0,.19-.37h.62a1.51,1.51,0,0,1-.29.67,1.48,1.48,0,0,1-1.19.6Z"/><path class="cls-1" d="M141.63,57.5a1.16,1.16,0,0,1-.51-.54,1.88,1.88,0,0,1-.18-.86V53.39h.6v2.74a1,1,0,0,0,.24.72,1,1,0,0,0,1.34,0,1,1,0,0,0,.24-.72V53.39h.6V56.1a1.89,1.89,0,0,1-.17.86,1.18,1.18,0,0,1-.52.54,1.86,1.86,0,0,1-1.64,0Z"/><path class="cls-1" d="M144.38,53.39h3V54h-3Zm1.22.34h.6v3.92h-.6Z"/><path class="cls-1" d="M147.89,53.39h.6v4.26h-.6Zm.29,0h2.48V54h-2.48Zm0,1.86h2.15v.56h-2.15Zm0,1.83h2.48v.57h-2.48Z"/><path class="cls-1" d="M155.42,56.12v.49h-3.14v-.49Zm.17-1.7v.5h-3.13v-.5Zm-2.18-1h.48l-.73,4.26h-.49Zm1.25,0h.49l-.74,4.26h-.48Z"/><path class="cls-1" d="M156.18,57.13l1.5-2a1.17,1.17,0,0,0,.2-.36.88.88,0,0,0,.08-.34h0a.52.52,0,0,0-.15-.4.63.63,0,0,0-.43-.14.61.61,0,0,0-.43.15.75.75,0,0,0-.2.44h-.62a1.51,1.51,0,0,1,.21-.63,1.15,1.15,0,0,1,.43-.39,1.27,1.27,0,0,1,.6-.14,1.62,1.62,0,0,1,.66.13,1,1,0,0,1,.41.38,1.16,1.16,0,0,1,.14.6h0a1.39,1.39,0,0,1-.09.47,2,2,0,0,1-.26.47L157,57.08h1.63v.57h-2.43Z"/><path class="cls-1" d="M181.7,59.39h.6v4.26h-.6Zm.29,0h2.48V60H182Zm0,1.86h2.15v.56H182Zm0,1.83h2.48v.57H182Z"/><path class="cls-1" d="M186.35,61.21l1.08-1.82h.68l-1.43,2.3-1.15,2h-.68Zm0,.56-.1-.14-1.39-2.24h.67l1,1.73.1.16,1.47,2.37h-.67Z"/><path class="cls-1" d="M188.77,59.39h.6v4.26h-.6Zm.29,0h2.47V60h-2.47Zm0,1.86h2.15v.56h-2.15Zm0,1.83h2.47v.57h-2.47Z"/><path class="cls-1" d="M193.35,63.69l-.34-.2a1.32,1.32,0,0,1-.52-.55,1.74,1.74,0,0,1-.19-.84V60.93a1.72,1.72,0,0,1,.19-.83,1.34,1.34,0,0,1,.52-.56,1.57,1.57,0,0,1,.79-.2,1.45,1.45,0,0,1,.68.16,1.38,1.38,0,0,1,.52.44,1.67,1.67,0,0,1,.28.67h-.62a.94.94,0,0,0-.18-.36,1.18,1.18,0,0,0-.31-.24.84.84,0,0,0-.37-.09.86.86,0,0,0-.46.13.76.76,0,0,0-.31.35,1.29,1.29,0,0,0-.11.53V62.1a1.25,1.25,0,0,0,.11.53.76.76,0,0,0,.31.35.78.78,0,0,0,.46.13,1,1,0,0,0,.37-.08,1,1,0,0,0,.31-.24.86.86,0,0,0,.18-.37h.62a1.62,1.62,0,0,1-.28.67,1.48,1.48,0,0,1-1.2.6Z"/><path class="cls-1" d="M196.78,63.5a1.18,1.18,0,0,1-.52-.54,1.88,1.88,0,0,1-.18-.86V59.39h.61v2.74a1,1,0,0,0,.23.72.87.87,0,0,0,.67.25.85.85,0,0,0,.67-.25,1,1,0,0,0,.24-.72V59.39h.61V62.1a1.88,1.88,0,0,1-.18.86,1.18,1.18,0,0,1-.52.54,1.63,1.63,0,0,1-.82.19A1.57,1.57,0,0,1,196.78,63.5Z"/><path class="cls-1" d="M199.52,59.39h3V60h-3Zm1.22.34h.6v3.92h-.6Z"/><path class="cls-1" d="M203,59.39h.61v4.26H203Zm.3,0h2.47V60h-2.47Zm0,1.86h2.14v.56h-2.14Zm0,1.83h2.47v.57h-2.47Z"/><path class="cls-1" d="M210.56,62.12v.49h-3.13v-.49Zm.18-1.7v.5H207.6v-.5Zm-2.19-1H209l-.73,4.26h-.48Zm1.26,0h.48l-.73,4.26h-.49Z"/><path class="cls-1" d="M212.14,63.69l-.27-.13a1,1,0,0,1-.45-.38,1.34,1.34,0,0,1-.21-.6h.62a.51.51,0,0,0,.11.3.58.58,0,0,0,.23.18.88.88,0,0,0,.33.06A.68.68,0,0,0,213,63a.61.61,0,0,0,.16-.45v-.13a.74.74,0,0,0-.15-.49.58.58,0,0,0-.45-.18h-.3v-.56h.3a.5.5,0,0,0,.39-.15.61.61,0,0,0,.14-.42v-.14a.56.56,0,0,0-.14-.39.6.6,0,0,0-.42-.13.64.64,0,0,0-.28,0,.49.49,0,0,0-.2.18.83.83,0,0,0-.13.3h-.61a1.48,1.48,0,0,1,.23-.6,1.07,1.07,0,0,1,.41-.38,1.4,1.4,0,0,1,1.44.16,1.11,1.11,0,0,1,.31.82v.07a.91.91,0,0,1-.18.56,1,1,0,0,1-.49.34.91.91,0,0,1,.54.34,1.14,1.14,0,0,1,.2.68v.07a1.29,1.29,0,0,1-.15.64,1,1,0,0,1-.42.4,1.54,1.54,0,0,1-.67.14Z"/><path class="cls-1" d="M182.3,160.35h.6v4.26h-.6Zm.29,0h2.47v.57h-2.47Zm0,1.86h2.15v.57h-2.15Zm0,1.83h2.47v.57h-2.47Z"/><path class="cls-1" d="M187,162.18l1.08-1.83h.67l-1.42,2.31-1.15,2h-.68Zm0,.56-.09-.15-1.4-2.24h.68l1,1.74.1.15,1.47,2.37h-.68Z"/><path class="cls-1" d="M189.36,160.35h.6v4.26h-.6Zm.29,0h2.48v.57h-2.48Zm0,1.86h2.15v.57h-2.15Zm0,1.83h2.48v.57h-2.48Z"/><path class="cls-1" d="M194,164.66l-.34-.2a1.36,1.36,0,0,1-.53-.56,1.84,1.84,0,0,1-.18-.83V161.9a1.86,1.86,0,0,1,.18-.84,1.34,1.34,0,0,1,.53-.55,1.44,1.44,0,0,1,.78-.2,1.58,1.58,0,0,1,.69.15,1.47,1.47,0,0,1,.51.45,1.65,1.65,0,0,1,.29.66h-.62a.92.92,0,0,0-.19-.35.79.79,0,0,0-.31-.24.81.81,0,0,0-.37-.09.81.81,0,0,0-.76.48,1.12,1.12,0,0,0-.12.53v1.17a1.08,1.08,0,0,0,.12.52.77.77,0,0,0,.3.36.88.88,0,0,0,.46.12.77.77,0,0,0,.37-.08.87.87,0,0,0,.31-.23.93.93,0,0,0,.19-.37h.62a1.65,1.65,0,0,1-.29.66,1.41,1.41,0,0,1-.52.45,1.51,1.51,0,0,1-.68.16Z"/><path class="cls-1" d="M197.37,164.47a1.29,1.29,0,0,1-.52-.54,2.06,2.06,0,0,1-.17-.86v-2.72h.6v2.74a1,1,0,0,0,.24.72,1,1,0,0,0,1.34,0,1,1,0,0,0,.24-.72v-2.74h.6v2.72a2.06,2.06,0,0,1-.17.86,1.29,1.29,0,0,1-.52.54,1.86,1.86,0,0,1-1.64,0Z"/><path class="cls-1" d="M200.12,160.35h3v.57h-3Zm1.21.35h.61v3.91h-.61Z"/><path class="cls-1" d="M203.63,160.35h.6v4.26h-.6Zm.29,0h2.47v.57h-2.47Zm0,1.86h2.15v.57h-2.15Zm0,1.83h2.47v.57h-2.47Z"/><path class="cls-1" d="M211.16,163.08v.5H208v-.5Zm.17-1.69v.49H208.2v-.49Zm-2.18-1h.48l-.73,4.26h-.49Zm1.25,0h.49l-.74,4.26h-.48Z"/><path class="cls-1" d="M213,164.61h-.6V161l-.61.37v-.61l.61-.41h.6Z"/><path class="cls-1" d="M237.27,168.35h.6v4.26h-.6Zm.29,0H240v.57h-2.47Zm0,1.86h2.15v.57h-2.15Zm0,1.83H240v.57h-2.47Z"/><path class="cls-1" d="M241.92,170.18l1.08-1.83h.67l-1.42,2.31-1.15,2h-.68Zm0,.56-.09-.15-1.4-2.24h.68l1,1.74.1.15,1.47,2.37h-.68Z"/><path class="cls-1" d="M244.33,168.35h.61v4.26h-.61Zm.3,0h2.47v.57h-2.47Zm0,1.86h2.14v.57h-2.14Zm0,1.83h2.47v.57h-2.47Z"/><path class="cls-1" d="M248.92,172.66l-.34-.2a1.36,1.36,0,0,1-.53-.56,1.84,1.84,0,0,1-.18-.83V169.9a1.86,1.86,0,0,1,.18-.84,1.34,1.34,0,0,1,.53-.55,1.45,1.45,0,0,1,.79-.2,1.57,1.57,0,0,1,.68.15,1.6,1.6,0,0,1,.52.45,1.63,1.63,0,0,1,.28.66h-.62a.92.92,0,0,0-.19-.35.79.79,0,0,0-.31-.24.8.8,0,0,0-.36-.09.83.83,0,0,0-.47.13.79.79,0,0,0-.3.35,1.12,1.12,0,0,0-.11.53v1.17a1.08,1.08,0,0,0,.11.52.77.77,0,0,0,.3.36.91.91,0,0,0,.47.12.76.76,0,0,0,.36-.08.87.87,0,0,0,.31-.23.93.93,0,0,0,.19-.37h.62a1.65,1.65,0,0,1-.29.66,1.41,1.41,0,0,1-.52.45,1.5,1.5,0,0,1-.67.16Z"/><path class="cls-1" d="M252.34,172.47a1.21,1.21,0,0,1-.51-.54,1.91,1.91,0,0,1-.18-.86v-2.72h.6v2.74a1,1,0,0,0,.24.72,1,1,0,0,0,1.34,0,1,1,0,0,0,.24-.72v-2.74h.6v2.72a2.06,2.06,0,0,1-.17.86,1.29,1.29,0,0,1-.52.54,1.86,1.86,0,0,1-1.64,0Z"/><path class="cls-1" d="M255.09,168.35h3v.57h-3Zm1.21.35h.61v3.91h-.61Z"/><path class="cls-1" d="M258.6,168.35h.6v4.26h-.6Zm.29,0h2.47v.57h-2.47Zm0,1.86H261v.57h-2.15Zm0,1.83h2.47v.57h-2.47Z"/><path class="cls-1" d="M266.13,171.08v.5H263v-.5Zm.17-1.69v.49h-3.13v-.49Zm-2.18-1h.48l-.73,4.26h-.49Zm1.25,0h.49l-.74,4.26h-.48Z"/><path class="cls-1" d="M266.89,172.09l1.5-2a1.37,1.37,0,0,0,.2-.35.93.93,0,0,0,.08-.34h0a.47.47,0,0,0-.16-.39.56.56,0,0,0-.42-.14.61.61,0,0,0-.43.15.67.67,0,0,0-.2.43h-.62a1.47,1.47,0,0,1,.21-.62,1.18,1.18,0,0,1,.43-.4,1.26,1.26,0,0,1,.6-.13,1.47,1.47,0,0,1,.66.13.89.89,0,0,1,.41.38,1.11,1.11,0,0,1,.14.6h0a1.35,1.35,0,0,1-.09.47,2,2,0,0,1-.26.48L267.69,172h1.63v.57h-2.43Z"/><path class="cls-1" d="M293,173.26h.6v4.26H293Zm.29,0h2.47v.57h-2.47Zm0,1.87h2.15v.56h-2.15Zm0,1.83h2.47v.56h-2.47Z"/><path class="cls-1" d="M297.62,175.09l1.08-1.83h.67L298,175.57l-1.16,2h-.67Zm0,.56-.09-.14-1.4-2.25h.68l1,1.74.1.16,1.47,2.36h-.68Z"/><path class="cls-1" d="M300,173.26h.6v4.26H300Zm.29,0h2.48v.57h-2.48Zm0,1.87h2.15v.56h-2.15Zm0,1.83h2.48v.56h-2.48Z"/><path class="cls-1" d="M304.62,177.57l-.34-.2a1.34,1.34,0,0,1-.53-.55,1.86,1.86,0,0,1-.18-.84v-1.17a1.84,1.84,0,0,1,.18-.83,1.36,1.36,0,0,1,.53-.56,1.53,1.53,0,0,1,.78-.2,1.46,1.46,0,0,1,.69.16,1.35,1.35,0,0,1,.51.44,1.63,1.63,0,0,1,.29.67h-.62a1,1,0,0,0-.19-.36,1,1,0,0,0-.31-.24.81.81,0,0,0-.37-.09.84.84,0,0,0-.77.48,1.25,1.25,0,0,0-.11.53V176a1.25,1.25,0,0,0,.11.53.84.84,0,0,0,.77.48.91.91,0,0,0,.37-.08.9.9,0,0,0,.31-.24.87.87,0,0,0,.19-.37h.62a1.69,1.69,0,0,1-.29.67,1.38,1.38,0,0,1-.52.44,1.39,1.39,0,0,1-.68.16Z"/><path class="cls-1" d="M308,177.38a1.24,1.24,0,0,1-.52-.54,2,2,0,0,1-.17-.86v-2.72h.6V176a1,1,0,0,0,.24.72,1,1,0,0,0,1.34,0,1,1,0,0,0,.24-.72v-2.74h.6V176a2,2,0,0,1-.17.86,1.24,1.24,0,0,1-.52.54,1.86,1.86,0,0,1-1.64,0Z"/><path class="cls-1" d="M310.79,173.26h3v.57h-3Zm1.21.35h.61v3.91H312Z"/><path class="cls-1" d="M314.3,173.26h.6v4.26h-.6Zm.29,0h2.47v.57h-2.47Zm0,1.87h2.15v.56h-2.15Zm0,1.83h2.47v.56h-2.47Z"/><path class="cls-1" d="M321.83,176v.49h-3.14V176Zm.17-1.7v.49h-3.13v-.49Zm-2.18-1h.48l-.73,4.26h-.49Zm1.25,0h.49l-.74,4.26h-.48Z"/><path class="cls-1" d="M323.41,177.57l-.28-.13a1.08,1.08,0,0,1-.44-.38,1.34,1.34,0,0,1-.21-.6h.61a.68.68,0,0,0,.12.3.52.52,0,0,0,.23.18.82.82,0,0,0,.33.05.65.65,0,0,0,.46-.15.61.61,0,0,0,.17-.45v-.13a.67.67,0,0,0-.16-.49.54.54,0,0,0-.44-.18h-.31V175h.31a.53.53,0,0,0,.39-.15.62.62,0,0,0,.14-.43v-.13a.5.5,0,0,0-.15-.39.61.61,0,0,0-.42-.14.57.57,0,0,0-.48.24,1,1,0,0,0-.12.3h-.61a1.47,1.47,0,0,1,.22-.6,1.09,1.09,0,0,1,.42-.38,1.17,1.17,0,0,1,.57-.13,1.23,1.23,0,0,1,.87.29,1.09,1.09,0,0,1,.3.82v.07a1,1,0,0,1-.17.56,1.06,1.06,0,0,1-.5.34.9.9,0,0,1,.55.34,1.14,1.14,0,0,1,.19.68v.07a1.41,1.41,0,0,1-.14.64.93.93,0,0,1-.43.4,1.46,1.46,0,0,1-.66.14Z"/><line class="cls-6" x1="4.88" y1="13.49" x2="4.88" y2="25.39"/><line class="cls-6" x1="57.58" y1="13.49" x2="57.58" y2="25.39"/><rect class="cls-3" x="60.47" y="21.3" width="52.7" height="8.19"/><line class="cls-6" x1="60.47" y1="19.44" x2="60.47" y2="31.34"/><line class="cls-6" x1="113.17" y1="19.44" x2="113.17" y2="31.34"/><rect class="cls-1" x="60.47" y="34.07" width="52.7" height="8.19"/><line class="cls-2" x1="60.47" y1="32.22" x2="60.47" y2="44.11"/><line class="cls-2" x1="113.17" y1="32.22" x2="113.17" y2="44.11"/><rect class="cls-3" x="116.13" y="27.24" width="52.7" height="8.19"/><line class="cls-6" x1="116.13" y1="25.39" x2="116.13" y2="37.29"/><line class="cls-6" x1="168.83" y1="25.39" x2="168.83" y2="37.29"/><rect class="cls-1" x="227.03" y="155.04" width="52.7" height="8.19"/><line class="cls-2" x1="227.03" y1="153.18" x2="227.03" y2="165.08"/><line class="cls-2" x1="279.73" y1="153.18" x2="279.73" y2="165.08"/><rect class="cls-1" x="282.57" y="163.04" width="52.7" height="8.19"/><line class="cls-2" x1="282.57" y1="161.18" x2="282.57" y2="173.08"/><line class="cls-2" x1="335.28" y1="161.18" x2="335.28" y2="173.08"/><rect class="cls-5" x="4.38" y="73.31" width="1" height="11.9"/><rect class="cls-5" x="29.6" y="73.31" width="1" height="11.9"/><rect class="cls-5" x="4.85" y="75.16" width="25.25" height="8.19"/><rect class="cls-5" x="31.69" y="85.26" width="1" height="11.9"/><rect class="cls-5" x="56.91" y="85.26" width="1" height="11.9"/><rect class="cls-5" x="32.16" y="87.11" width="25.25" height="8.19"/><rect class="cls-5" x="60.1" y="97.16" width="1" height="11.9"/><rect class="cls-5" x="85.33" y="97.16" width="1" height="11.9"/><rect class="cls-5" x="60.57" y="99.01" width="25.25" height="8.19"/><rect class="cls-5" x="87.41" y="109.05" width="1" height="11.9"/><rect class="cls-5" x="112.64" y="109.05" width="1" height="11.9"/><rect class="cls-5" x="87.88" y="110.91" width="25.25" height="8.19"/><rect class="cls-5" x="115.5" y="121.19" width="1" height="11.9"/><rect class="cls-5" x="140.73" y="121.19" width="1" height="11.9"/><rect class="cls-5" x="115.98" y="123.05" width="25.25" height="8.19"/><rect class="cls-5" x="142.81" y="133.28" width="1" height="11.9"/><rect class="cls-5" x="168.04" y="133.28" width="1" height="11.9"/><rect class="cls-5" x="143.29" y="135.14" width="25.25" height="8.19"/></svg>